{"glyphs":{"0":{"ha":2097,"x_min":0,"x_max":2165,"o":"m 576 1570 l 1950 1570 l 1950 1355 l 2165 1355 l 2165 -16 l 1950 -16 l 1950 -231 l 1804 -231 l 1804 -373 l 1589 -373 l 1589 -589 l 215 -589 l 215 -373 l 0 -373 l 0 997 l 215 997 l 215 1213 l 361 1213 l 361 1355 l 576 1355 l 576 1570 m 725 1424 l 725 1209 l 509 1209 l 509 130 l 725 130 l 725 -85 l 1801 -85 l 1801 130 l 2016 130 l 2016 1209 l 1801 1209 l 1801 1424 l 725 1424 m 1155 991 l 1801 991 l 1801 345 l 1155 345 l 1155 991 z "},"1":{"ha":1451,"x_min":0,"x_max":1519,"o":"m 361 1570 l 1519 1570 l 1519 -231 l 1158 -231 l 1158 -589 l 215 -589 l 215 488 l 0 488 l 0 1213 l 361 1213 l 361 1570 m 509 1424 l 509 991 l 725 991 l 725 -85 l 1371 -85 l 1371 1424 l 509 1424 z "},"2":{"ha":2097,"x_min":0,"x_max":2165,"o":"m 576 1570 l 1950 1570 l 1950 1355 l 2165 1355 l 2165 630 l 1950 630 l 1950 494 l 2165 494 l 2165 -231 l 1804 -231 l 1804 -589 l 0 -589 l 0 136 l 215 136 l 215 351 l 361 351 l 361 488 l 0 488 l 0 997 l 215 997 l 215 1213 l 361 1213 l 361 1355 l 576 1355 l 576 1570 m 725 1424 l 725 1209 l 509 1209 l 509 991 l 1371 991 l 1371 779 l 940 779 l 940 567 q 934 560 940 560 l 725 560 l 725 351 q 718 345 725 345 l 509 345 l 509 -85 l 2016 -85 l 2016 345 l 1371 345 l 1371 560 l 1801 560 l 1801 776 l 2016 776 l 2016 1209 l 1801 1209 l 1801 1424 l 725 1424 z "},"3":{"ha":2097,"x_min":0,"x_max":2165,"o":"m 576 1567 l 1950 1567 l 1950 1352 l 2165 1352 l 2165 -19 l 1950 -19 l 1950 -234 l 1804 -234 l 1804 -376 l 1589 -376 l 1589 -591 l 215 -591 l 215 -376 l 0 -376 l 0 133 l 361 133 l 361 484 l 0 484 l 0 994 l 215 994 l 215 1209 l 361 1209 l 361 1352 l 576 1352 l 576 1567 m 725 1421 l 725 1206 l 509 1206 l 509 987 l 1371 987 l 1371 776 l 940 776 l 940 557 l 1371 557 l 1371 342 l 509 342 l 509 127 l 725 127 l 725 -88 l 1801 -88 l 1801 127 l 2019 127 l 2019 557 l 1807 557 q 1801 564 1801 557 l 1801 772 l 2019 772 l 2019 1200 q 2013 1206 2019 1206 l 1801 1206 l 1801 1421 l 725 1421 z "},"4":{"ha":2097,"x_min":0,"x_max":2165,"o":"m 361 1573 l 1301 1573 l 1301 928 l 2165 928 l 2165 203 l 1804 203 l 1804 -155 l 1731 -155 l 1731 -228 l 1371 -228 l 1371 -585 l 646 -585 l 646 -155 l 0 -155 l 0 1215 l 361 1215 l 361 1573 m 507 1428 l 507 349 l 1155 349 l 1155 -82 l 1586 -82 l 1586 349 l 2016 349 l 2016 782 l 1155 782 l 1155 1428 l 507 1428 z "},"5":{"ha":2097,"x_min":0,"x_max":2165,"o":"m 361 1573 l 2165 1573 l 2165 848 l 1950 848 l 1950 712 l 2165 712 l 2165 -12 l 1950 -12 l 1950 -228 l 1804 -228 l 1804 -370 l 1589 -370 l 1589 -585 l 215 -585 l 215 -370 l 0 -370 l 0 1215 l 361 1215 l 361 1573 m 509 1428 l 509 564 l 1371 564 l 1371 355 q 1364 349 1371 349 l 509 349 l 509 133 l 725 133 l 725 -82 l 1801 -82 l 1801 133 l 2016 133 l 2016 567 l 1801 567 l 1801 782 l 1155 782 l 1155 994 l 2016 994 l 2016 1428 l 509 1428 z "},"6":{"ha":2097,"x_min":0,"x_max":2165,"o":"m 576 1573 l 1950 1573 l 1950 1358 l 2165 1358 l 2165 848 l 1950 848 l 1950 712 l 2165 712 l 2165 -12 l 1950 -12 l 1950 -228 l 1804 -228 l 1804 -370 l 1589 -370 l 1589 -585 l 215 -585 l 215 -370 l 0 -370 l 0 1000 l 215 1000 l 215 1215 l 361 1215 l 361 1358 l 576 1358 l 576 1573 m 725 1428 l 725 1213 l 509 1213 l 509 133 l 725 133 l 725 -82 l 1801 -82 l 1801 133 l 2019 133 l 2019 560 q 2013 567 2019 567 l 1801 567 l 1801 782 l 1155 782 l 1155 994 l 2019 994 l 2019 1206 q 2013 1213 2019 1213 l 1801 1213 l 1801 1428 l 725 1428 m 1155 564 l 1586 564 l 1586 349 l 1162 349 q 1155 355 1155 349 l 1155 564 z "},"7":{"ha":2094,"x_min":0,"x_max":2161,"o":"m 361 1573 l 2161 1573 l 2161 -228 l 1801 -228 l 1801 -585 l 858 -585 l 858 491 l 0 491 l 0 1215 l 361 1215 l 361 1573 m 507 1428 l 507 994 l 1367 994 l 1367 -82 l 2016 -82 l 2016 1428 l 507 1428 z "},"8":{"ha":2097,"x_min":0,"x_max":2165,"o":"m 576 1576 l 1946 1576 l 1946 1361 l 2165 1361 l 2165 -9 l 1946 -9 l 1946 -224 l 1804 -224 l 1804 -367 l 1586 -367 l 1586 -582 l 215 -582 l 215 -367 l 0 -367 l 0 1004 l 215 1004 l 215 1219 l 361 1219 l 361 1361 l 576 1361 l 576 1576 m 722 1431 l 722 1215 l 513 1215 q 507 1209 507 1215 l 507 136 l 722 136 l 722 -79 l 1801 -79 l 1801 136 l 2016 136 l 2016 1215 l 1801 1215 l 1801 1431 l 722 1431 m 1155 997 l 1801 997 l 1801 785 l 1155 785 l 1155 997 m 1155 567 l 1801 567 l 1801 355 l 1155 355 l 1155 567 z "},"9":{"ha":2097,"x_min":0,"x_max":2165,"o":"m 576 1576 l 1950 1576 l 1950 1361 l 2165 1361 l 2165 -9 l 1950 -9 l 1950 -224 l 1804 -224 l 1804 -367 l 1589 -367 l 1589 -582 l 215 -582 l 215 -367 l 0 -367 l 0 142 l 215 142 l 215 279 l 0 279 l 0 1004 l 215 1004 l 215 1219 l 361 1219 l 361 1361 l 576 1361 l 576 1576 m 725 1431 l 725 1215 l 509 1215 l 509 782 l 725 782 l 725 567 l 1586 567 l 1586 355 l 509 355 l 509 136 l 725 136 l 725 -79 l 1801 -79 l 1801 136 l 2016 136 l 2016 1215 l 1801 1215 l 1801 1431 l 725 1431 m 1155 997 l 1586 997 l 1586 785 l 1155 785 l 1155 997 z "}," ":{"ha":555,"x_min":0,"x_max":0,"o":""},",":{"ha":1011,"x_min":0,"x_max":1079,"o":"m 355 503 l 1079 503 l 1079 -221 l 864 -221 l 864 -437 l 725 -437 l 725 -579 l 509 -579 l 509 -794 l 0 -794 l 0 146 l 355 146 l 355 503 m 500 358 l 500 -291 l 718 -291 l 718 -76 l 934 -76 l 934 351 q 927 358 934 358 l 500 358 z "},".":{"ha":1011,"x_min":0,"x_max":1079,"o":"m 355 503 l 1079 503 l 1079 -221 l 725 -221 l 725 -579 l 0 -579 l 0 146 l 355 146 l 355 503 m 500 358 l 500 -76 l 934 -76 l 934 351 q 927 358 934 358 l 500 358 z "},"=":{"ha":1666,"x_min":0,"x_max":1734,"o":"m 361 930 l 1734 930 l 1734 206 l 1373 206 l 1373 -152 l 0 -152 l 0 573 l 361 573 l 361 930 m 509 782 l 509 351 l 1586 351 l 1586 782 l 509 782 z "},"A":{"ha":2100,"x_min":0,"x_max":2168,"o":"m 579 1570 l 1952 1570 l 1952 1355 l 2168 1355 l 2168 -231 l 1804 -231 l 1804 -589 l 1295 -589 l 1295 -231 l 940 -231 l 940 -589 l 0 -589 l 0 997 l 215 997 l 215 1213 l 364 1213 l 364 1355 l 579 1355 l 579 1570 m 725 1424 l 725 1209 l 509 1209 l 509 -85 l 1158 -85 l 1158 345 l 1804 345 l 1804 -85 l 2022 -85 l 2022 1209 l 1807 1209 l 1807 1424 l 725 1424 m 1158 991 l 1804 991 l 1804 564 l 1158 564 l 1158 991 z "},"B":{"ha":2100,"x_min":0,"x_max":2168,"o":"m 364 1570 l 1952 1570 l 1952 1355 l 2168 1355 l 2168 -16 l 1952 -16 l 1952 -231 l 1804 -231 l 1804 -373 l 1589 -373 l 1589 -589 l 0 -589 l 0 1213 l 364 1213 l 364 1570 m 509 1424 l 509 -85 l 1807 -85 l 1807 130 l 2022 130 l 2022 1209 l 1807 1209 l 1807 1424 l 509 1424 m 1162 991 l 1804 991 l 1804 779 l 1162 779 l 1162 991 m 1162 560 l 1804 560 l 1804 349 l 1162 349 l 1162 560 z "},"C":{"ha":2100,"x_min":0,"x_max":2168,"o":"m 583 1570 l 1952 1570 l 1952 1355 l 2168 1355 l 2168 845 l 1804 845 l 1804 494 l 2168 494 l 2168 -16 l 1952 -16 l 1952 -231 l 1804 -231 l 1804 -373 l 1589 -373 l 1589 -589 l 218 -589 l 218 -373 l 0 -373 l 0 997 l 218 997 l 218 1213 l 364 1213 l 364 1355 l 583 1355 l 583 1570 m 728 1424 l 728 1209 l 509 1209 l 509 130 l 728 130 l 728 -85 l 1807 -85 l 1807 130 l 2022 130 l 2022 349 l 1162 349 l 1162 991 l 2022 991 l 2022 1209 l 1807 1209 l 1807 1424 l 728 1424 z "},"D":{"ha":2097,"x_min":0,"x_max":2165,"o":"m 364 1567 l 1950 1567 l 1950 1352 l 2165 1352 l 2165 -19 l 1950 -19 l 1950 -234 l 1801 -234 l 1801 -376 l 1586 -376 l 1586 -591 l 0 -591 l 0 1209 l 364 1209 l 364 1567 m 509 1421 l 509 -88 l 1804 -88 l 1804 127 l 2019 127 l 2019 1206 l 1804 1206 l 1804 1421 l 509 1421 m 1158 987 l 1801 987 l 1801 345 l 1158 345 l 1158 987 z "},"E":{"ha":2100,"x_min":0,"x_max":2168,"o":"m 364 1573 l 2168 1573 l 2168 848 l 1804 848 l 1804 497 l 2168 497 l 2168 -228 l 1804 -228 l 1804 -585 l 0 -585 l 0 1215 l 364 1215 l 364 1573 m 509 1428 l 509 -82 l 2022 -82 l 2022 351 l 1158 351 l 1158 564 l 1592 564 l 1592 782 l 1158 782 l 1158 994 l 2022 994 l 2022 1428 l 509 1428 z "},"F":{"ha":2100,"x_min":0,"x_max":2168,"o":"m 364 1573 l 2168 1573 l 2168 848 l 1737 848 l 1737 418 l 1307 418 l 1307 -228 l 943 -228 l 943 -585 l 0 -585 l 0 1215 l 364 1215 l 364 1573 m 509 1428 l 509 -82 l 1162 -82 l 1162 564 l 1592 564 l 1592 782 l 1162 782 l 1162 994 l 2022 994 l 2022 1428 l 509 1428 z "},"G":{"ha":2100,"x_min":0,"x_max":2168,"o":"m 583 1573 l 1952 1573 l 1952 1358 l 2168 1358 l 2168 -228 l 1804 -228 l 1804 -585 l 218 -585 l 218 -370 l 0 -370 l 0 1000 l 218 1000 l 218 1215 l 364 1215 l 364 1358 l 583 1358 l 583 1573 m 728 1428 l 728 1213 l 509 1213 l 509 133 l 728 133 l 728 -82 l 2022 -82 l 2022 782 l 1373 782 l 1373 564 l 1804 564 l 1804 351 l 1162 351 l 1162 994 l 2022 994 l 2022 1213 l 1807 1213 l 1807 1428 l 728 1428 z "},"H":{"ha":2097,"x_min":0,"x_max":2165,"o":"m 364 1573 l 1304 1573 l 1304 1215 l 1655 1215 l 1655 1573 l 2165 1573 l 2165 -228 l 1801 -228 l 1801 -585 l 1291 -585 l 1291 -228 l 940 -228 l 940 -585 l 0 -585 l 0 1215 l 364 1215 l 364 1573 m 509 1428 l 509 -82 l 1158 -82 l 1158 564 l 1801 564 l 1801 -82 l 2019 -82 l 2019 1428 l 1801 1428 l 1801 782 l 1158 782 l 1158 1428 l 509 1428 z "},"I":{"ha":1236,"x_min":0,"x_max":1304,"o":"m 364 1576 l 1304 1576 l 1304 -224 l 940 -224 l 940 -582 l 0 -582 l 0 1219 l 364 1219 l 364 1576 m 509 1431 l 509 -79 l 1158 -79 l 1158 1431 l 509 1431 z "},"J":{"ha":2097,"x_min":0,"x_max":2165,"o":"m 1655 1576 l 2165 1576 l 2165 -9 l 1950 -9 l 1950 -224 l 1801 -224 l 1801 -367 l 1586 -367 l 1586 -582 l 215 -582 l 215 -367 l 0 -367 l 0 573 l 364 573 l 364 930 l 1291 930 l 1291 1219 l 1655 1219 l 1655 1576 m 1801 1431 l 1801 355 l 1158 355 l 1158 785 l 509 785 l 509 136 l 725 136 l 725 -79 l 1804 -79 l 1804 136 l 2019 136 l 2019 1431 l 1801 1431 z "},"K":{"ha":2100,"x_min":0,"x_max":2168,"o":"m 364 1576 l 1304 1576 l 1304 1219 l 1655 1219 l 1655 1576 l 2168 1576 l 2168 -224 l 1804 -224 l 1804 -582 l 1076 -582 l 1076 -224 l 940 -224 l 940 -582 l 0 -582 l 0 1219 l 364 1219 l 364 1576 m 509 1431 l 509 -79 l 1158 -79 l 1158 567 l 1371 567 l 1371 351 l 1586 351 l 1586 -79 l 2022 -79 l 2022 570 l 1804 570 l 1804 782 l 2022 782 l 2022 1431 l 1801 1431 l 1801 1000 l 1586 1000 l 1586 785 l 1158 785 l 1158 1431 l 509 1431 z "},"L":{"ha":1882,"x_min":0,"x_max":1950,"o":"m 364 1576 l 1304 1576 l 1304 500 l 1950 500 l 1950 -224 l 1586 -224 l 1586 -582 l 0 -582 l 0 1219 l 364 1219 l 364 1576 m 509 1431 l 509 -79 l 1804 -79 l 1804 355 l 1158 355 l 1158 1431 l 509 1431 z "},"M":{"ha":2315,"x_min":0,"x_max":2383,"o":"m 364 1579 l 1088 1579 l 1088 1364 l 1304 1364 l 1304 1222 l 1658 1222 l 1658 1364 l 1874 1364 l 1874 1579 l 2383 1579 l 2383 -221 l 2019 -221 l 2019 -579 l 1510 -579 l 1510 -149 l 1373 -149 l 1373 -363 l 940 -363 l 940 -579 l 0 -579 l 0 1222 l 364 1222 l 364 1579 m 509 1434 l 509 -76 l 1158 -76 l 1158 355 l 1371 355 l 1371 140 l 1592 140 l 1592 355 l 1807 355 l 1807 570 l 2019 570 l 2019 -76 l 2237 -76 l 2237 1434 l 2019 1434 l 2019 1219 l 1804 1219 l 1804 1004 l 1589 1004 l 1589 788 l 1373 788 l 1373 1004 l 1158 1004 l 1158 1219 l 943 1219 l 943 1434 l 509 1434 z "},"N":{"ha":2100,"x_min":0,"x_max":2168,"o":"m 364 1579 l 1307 1579 l 1307 1364 l 1522 1364 l 1522 1222 l 1658 1222 l 1658 1579 l 2168 1579 l 2168 -221 l 1804 -221 l 1804 -579 l 1079 -579 l 1079 -221 l 943 -221 l 943 -579 l 0 -579 l 0 1222 l 364 1222 l 364 1579 m 509 1434 l 509 -76 l 1162 -76 l 1162 570 l 1373 570 l 1373 355 l 1589 355 l 1589 -76 l 2022 -76 l 2022 1434 l 1804 1434 l 1804 788 l 1592 788 l 1592 1004 l 1377 1004 l 1377 1219 l 1162 1219 l 1162 1434 l 509 1434 z "},"O":{"ha":2097,"x_min":0,"x_max":2165,"o":"m 579 1579 l 1950 1579 l 1950 1364 l 2165 1364 l 2165 -6 l 1950 -6 l 1950 -221 l 1801 -221 l 1801 -363 l 1586 -363 l 1586 -579 l 215 -579 l 215 -363 l 0 -363 l 0 1006 l 215 1006 l 215 1222 l 364 1222 l 364 1364 l 579 1364 l 579 1579 m 725 1434 l 725 1219 l 509 1219 l 509 140 l 725 140 l 725 -76 l 1804 -76 l 1804 140 l 2019 140 l 2019 1219 l 1804 1219 l 1804 1434 l 725 1434 m 1158 1000 l 1801 1000 l 1801 358 l 1158 358 l 1158 1000 z "},"P":{"ha":2097,"x_min":0,"x_max":2165,"o":"m 364 1579 l 1950 1579 l 1950 1364 l 2165 1364 l 2165 425 l 1950 425 l 1950 209 l 1801 209 l 1801 66 l 1586 66 l 1586 -221 l 940 -221 l 940 -579 l 0 -579 l 0 1222 l 364 1222 l 364 1579 m 509 1434 l 509 -76 l 1158 -76 l 1158 355 l 1804 355 l 1804 570 l 2019 570 l 2019 1219 l 1804 1219 l 1804 1434 l 509 1434 m 1158 1000 l 1586 1000 l 1586 573 l 1158 573 l 1158 1000 z "},"Q":{"ha":2087,"x_min":0,"x_max":2155,"o":"m 570 1570 l 1940 1570 l 1940 1355 l 2155 1355 l 2155 -231 l 1801 -231 l 1801 -589 l 215 -589 l 215 -373 l 0 -373 l 0 997 l 215 997 l 215 1213 l 355 1213 l 355 1355 l 570 1355 l 570 1570 m 715 1424 l 715 1209 l 507 1209 q 500 1203 500 1208 l 500 130 l 715 130 l 715 -85 l 2009 -85 l 2009 1209 l 1794 1209 l 1794 1424 l 715 1424 m 1149 991 l 1791 991 l 1791 560 l 1576 560 l 1576 345 l 1149 345 l 1149 991 z "},"R":{"ha":2087,"x_min":0,"x_max":2155,"o":"m 355 1570 l 1940 1570 l 1940 1355 l 2155 1355 l 2155 -231 l 1801 -231 l 1801 -589 l 1076 -589 l 1076 -231 l 940 -231 l 940 -589 l 0 -589 l 0 1213 l 355 1213 l 355 1570 m 500 1424 l 500 -85 l 1149 -85 l 1149 345 l 1579 345 l 1579 -85 l 2009 -85 l 2009 345 l 1794 345 l 1794 560 l 2009 560 l 2009 1209 l 1794 1209 l 1794 1424 l 500 1424 m 1149 991 l 1579 991 l 1579 567 q 1573 560 1579 560 l 1149 560 l 1149 991 z "},"S":{"ha":2091,"x_min":0,"x_max":2159,"o":"m 570 1570 l 1940 1570 l 1940 1355 l 2159 1355 l 2159 -16 l 1940 -16 l 1940 -231 l 1804 -231 l 1804 -373 l 1586 -373 l 1586 -589 l 215 -589 l 215 -373 l 0 -373 l 0 136 l 215 136 l 215 273 l 0 273 l 0 997 l 215 997 l 215 1213 l 355 1213 l 355 1355 l 570 1355 l 570 1570 m 715 1424 l 715 1209 l 507 1209 q 500 1203 500 1208 l 500 776 l 715 776 l 715 560 l 1794 560 l 1794 351 q 1788 345 1794 345 l 500 345 l 500 130 l 715 130 l 715 -85 l 1794 -85 l 1794 130 l 2009 130 l 2009 779 l 1149 779 l 1149 991 l 2009 991 l 2009 1209 l 1794 1209 l 1794 1424 l 715 1424 z "},"T":{"ha":2091,"x_min":0,"x_max":2159,"o":"m 355 1567 l 2159 1567 l 2159 842 l 1725 842 l 1725 -234 l 1371 -234 l 1371 -591 l 431 -591 l 431 484 l 0 484 l 0 1209 l 355 1209 l 355 1567 m 500 1421 l 500 987 l 934 987 l 934 -88 l 1579 -88 l 1579 987 l 2009 987 l 2009 1421 l 500 1421 z "},"U":{"ha":2087,"x_min":0,"x_max":2155,"o":"m 355 1573 l 1295 1573 l 1295 1215 l 1646 1215 l 1646 1573 l 2155 1573 l 2155 -12 l 1940 -12 l 1940 -228 l 1801 -228 l 1801 -370 l 1586 -370 l 1586 -585 l 215 -585 l 215 -370 l 0 -370 l 0 1215 l 355 1215 l 355 1573 m 500 1428 l 500 133 l 715 133 l 715 -82 l 1794 -82 l 1794 133 l 2009 133 l 2009 1428 l 1791 1428 l 1791 349 l 1149 349 l 1149 1428 l 500 1428 z "},"V":{"ha":2087,"x_min":0,"x_max":2155,"o":"m 355 1573 l 1295 1573 l 1295 1215 l 1646 1215 l 1646 1573 l 2155 1573 l 2155 203 l 1940 203 l 1940 -12 l 1801 -12 l 1801 -155 l 1725 -155 l 1725 -228 l 1586 -228 l 1586 -370 l 1371 -370 l 1371 -585 l 431 -585 l 431 -370 l 215 -370 l 215 -155 l 0 -155 l 0 1215 l 355 1215 l 355 1573 m 500 1428 l 500 349 l 715 349 l 715 133 l 930 133 l 930 -82 l 1579 -82 l 1579 133 l 1794 133 l 1794 349 l 2009 349 l 2009 1428 l 1791 1428 l 1791 782 l 1576 782 l 1576 567 l 1364 567 l 1364 776 q 1358 782 1364 782 l 1149 782 l 1149 1428 l 500 1428 z "},"W":{"ha":2302,"x_min":0,"x_max":2370,"o":"m 355 1573 l 1295 1573 l 1295 1215 l 1861 1215 l 1861 1573 l 2370 1573 l 2370 -228 l 2016 -228 l 2016 -585 l 1291 -585 l 1291 -370 l 940 -370 l 940 -585 l 0 -585 l 0 1215 l 355 1215 l 355 1573 m 500 1428 l 500 -82 l 1149 -82 l 1149 133 l 1364 133 l 1364 349 l 1576 349 l 1576 133 l 1791 133 l 1791 -82 l 2225 -82 l 2225 1428 l 2007 1428 l 2007 567 l 1794 567 l 1794 782 l 1579 782 l 1579 997 l 1361 997 l 1361 782 l 1149 782 l 1149 1428 l 500 1428 z "},"X":{"ha":2087,"x_min":0,"x_max":2155,"o":"m 355 1573 l 1079 1573 l 1079 1358 l 1430 1358 l 1430 1573 l 2155 1573 l 2155 848 l 1940 848 l 1940 497 l 2155 497 l 2155 -228 l 1801 -228 l 1801 -585 l 1076 -585 l 1076 -370 l 725 -370 l 725 -585 l 0 -585 l 0 140 l 215 140 l 215 491 l 0 491 l 0 1215 l 355 1215 l 355 1573 m 500 1428 l 500 994 l 715 994 l 715 779 l 930 779 l 930 567 l 715 567 l 715 349 l 500 349 l 500 -82 l 934 -82 l 934 133 l 1149 133 l 1149 349 l 1361 349 l 1361 133 l 1576 133 l 1576 -82 l 2009 -82 l 2009 349 l 1794 349 l 1794 567 l 1579 567 l 1579 779 l 1794 779 l 1794 994 l 2009 994 l 2009 1428 l 1576 1428 l 1576 1213 l 1367 1213 q 1361 1206 1361 1211 l 1361 997 l 1149 997 l 1149 1213 l 934 1213 l 934 1428 l 500 1428 z "},"Y":{"ha":2087,"x_min":0,"x_max":2155,"o":"m 355 1576 l 1295 1576 l 1295 1219 l 1646 1219 l 1646 1576 l 2155 1576 l 2155 421 l 1801 421 l 1801 64 l 1725 64 l 1725 -224 l 1371 -224 l 1371 -582 l 431 -582 l 431 64 l 0 64 l 0 1219 l 355 1219 l 355 1576 m 500 1431 l 500 567 l 930 567 l 930 -79 l 1579 -79 l 1579 567 l 2009 567 l 2009 1431 l 1791 1431 l 1791 1000 l 1149 1000 l 1149 1431 l 500 1431 z "},"Z":{"ha":2087,"x_min":0,"x_max":2155,"o":"m 355 1576 l 2155 1576 l 2155 852 l 1940 852 l 1940 636 l 1801 636 l 1801 500 l 2155 500 l 2155 -224 l 1801 -224 l 1801 -582 l 0 -582 l 0 142 l 215 142 l 215 358 l 355 358 l 355 494 l 0 494 l 0 1219 l 355 1219 l 355 1576 m 500 1431 l 500 997 l 1145 997 l 1145 785 l 930 785 l 930 570 l 715 570 l 715 355 l 500 355 l 500 -79 l 2009 -79 l 2009 355 l 1364 355 l 1364 567 l 1579 567 l 1579 782 l 1794 782 l 1794 997 l 2009 997 l 2009 1431 l 500 1431 z "},"'":{"ha":1011,"x_min":0,"x_max":1079,"o":"m 355 1574 l 1079 1574 l 1079 850 l 864 850 l 864 634 l 725 634 l 725 492 l 509 492 l 509 277 l 0 277 l 0 1217 l 355 1217 l 355 1574 m 500 1429 l 500 780 l 718 780 l 718 995 l 934 995 l 934 1422 q 927 1429 934 1429 l 500 1429 z "}}}
